<mxfile host="www.draw.io" modified="2020-02-16T02:59:55.718Z" agent="Mozilla/5.0 (Windows NT 10.0; Win64; x64) AppleWebKit/537.36 (KHTML, like Gecko) Chrome/79.0.3945.130 Safari/537.36" etag="nVYC1H-M0C-wVXELjXoO" version="12.7.0" type="github" pages="3">
  <diagram id="Bx6rvehUoLZO955_rD8m" name="6.1: Display GH Selection Screen">
    <mxGraphModel dx="918" dy="512" grid="1" gridSize="10" guides="1" tooltips="1" connect="1" arrows="1" fold="1" page="1" pageScale="1" pageWidth="850" pageHeight="1100" math="0" shadow="0">
      <root>
        <mxCell id="0"/>
        <mxCell id="1" parent="0"/>
        <mxCell id="bkbCYRW3ADsZCOBHCdZu-1" value="6.1&lt;br&gt;Display Group Home Selection Screen" style="whiteSpace=wrap;html=1;aspect=fixed;" parent="1" vertex="1">
          <mxGeometry x="350" y="50" width="80" height="80" as="geometry"/>
        </mxCell>
        <mxCell id="bkbCYRW3ADsZCOBHCdZu-3" value="6.1.2&lt;br&gt;Display List of Group Homes" style="whiteSpace=wrap;html=1;aspect=fixed;" parent="1" vertex="1">
          <mxGeometry x="560" y="240" width="80" height="80" as="geometry"/>
        </mxCell>
        <mxCell id="bkbCYRW3ADsZCOBHCdZu-5" value="" style="endArrow=classic;html=1;strokeWidth=1;entryX=0.5;entryY=0;entryDx=0;entryDy=0;exitX=1;exitY=1;exitDx=0;exitDy=0;" parent="1" source="buBdiMg5G6qNQcdsuCJa-12" target="bkbCYRW3ADsZCOBHCdZu-3" edge="1">
          <mxGeometry width="50" height="50" relative="1" as="geometry">
            <mxPoint x="510" y="150" as="sourcePoint"/>
            <mxPoint x="515" y="250" as="targetPoint"/>
          </mxGeometry>
        </mxCell>
        <mxCell id="buBdiMg5G6qNQcdsuCJa-1" value="6.1.1&lt;br&gt;Confirm user" style="shape=process;whiteSpace=wrap;html=1;backgroundOutline=1;" vertex="1" parent="1">
          <mxGeometry x="160" y="260" width="120" height="60" as="geometry"/>
        </mxCell>
        <mxCell id="buBdiMg5G6qNQcdsuCJa-2" value="" style="endArrow=classic;html=1;strokeWidth=1;exitX=0;exitY=1;exitDx=0;exitDy=0;entryX=0.5;entryY=0;entryDx=0;entryDy=0;" edge="1" parent="1" source="bkbCYRW3ADsZCOBHCdZu-1" target="buBdiMg5G6qNQcdsuCJa-1">
          <mxGeometry width="50" height="50" relative="1" as="geometry">
            <mxPoint x="330" y="220" as="sourcePoint"/>
            <mxPoint x="380" y="170" as="targetPoint"/>
          </mxGeometry>
        </mxCell>
        <mxCell id="buBdiMg5G6qNQcdsuCJa-3" value="" style="endArrow=classic;html=1;strokeWidth=1;" edge="1" parent="1">
          <mxGeometry width="50" height="50" relative="1" as="geometry">
            <mxPoint x="270" y="170" as="sourcePoint"/>
            <mxPoint x="240" y="200" as="targetPoint"/>
          </mxGeometry>
        </mxCell>
        <mxCell id="buBdiMg5G6qNQcdsuCJa-10" value="" style="ellipse;whiteSpace=wrap;html=1;aspect=fixed;fillColor=#FFFFFF;" vertex="1" parent="1">
          <mxGeometry x="270" y="160" width="10" height="10" as="geometry"/>
        </mxCell>
        <mxCell id="buBdiMg5G6qNQcdsuCJa-11" value="User type variable" style="text;html=1;strokeColor=none;fillColor=none;align=center;verticalAlign=middle;whiteSpace=wrap;rounded=0;" vertex="1" parent="1">
          <mxGeometry x="220" y="145" width="40" height="20" as="geometry"/>
        </mxCell>
        <mxCell id="buBdiMg5G6qNQcdsuCJa-12" value="" style="rhombus;whiteSpace=wrap;html=1;fillColor=#FFFFFF;" vertex="1" parent="1">
          <mxGeometry x="420" y="120" width="20" height="20" as="geometry"/>
        </mxCell>
      </root>
    </mxGraphModel>
  </diagram>
  <diagram id="oOssQ_DfvUx--qjvg45l" name="6.2: Retrieve GH Information">
    <mxGraphModel dx="1952" dy="614" grid="1" gridSize="10" guides="1" tooltips="1" connect="1" arrows="1" fold="1" page="1" pageScale="1" pageWidth="850" pageHeight="1100" math="0" shadow="0">
      <root>
        <mxCell id="BQkyG8N_VDIgJS5VGbaI-0"/>
        <mxCell id="BQkyG8N_VDIgJS5VGbaI-1" parent="BQkyG8N_VDIgJS5VGbaI-0"/>
        <mxCell id="W4z7vBKg3XC51k5--N2T-0" value="6.2&lt;br&gt;Retrieve Group Home Information" style="whiteSpace=wrap;html=1;aspect=fixed;" parent="BQkyG8N_VDIgJS5VGbaI-1" vertex="1">
          <mxGeometry x="355" y="50" width="80" height="80" as="geometry"/>
        </mxCell>
        <mxCell id="W4z7vBKg3XC51k5--N2T-1" value="6.2.2&lt;br&gt;Display Information of Selected Group Home to be Edited" style="whiteSpace=wrap;html=1;aspect=fixed;" parent="BQkyG8N_VDIgJS5VGbaI-1" vertex="1">
          <mxGeometry x="550" y="200" width="90" height="90" as="geometry"/>
        </mxCell>
        <mxCell id="W4z7vBKg3XC51k5--N2T-2" value="" style="endArrow=classic;html=1;exitX=1;exitY=1;exitDx=0;exitDy=0;strokeWidth=2;entryX=0.5;entryY=0;entryDx=0;entryDy=0;" parent="BQkyG8N_VDIgJS5VGbaI-1" source="W4z7vBKg3XC51k5--N2T-0" target="W4z7vBKg3XC51k5--N2T-1" edge="1">
          <mxGeometry width="50" height="50" relative="1" as="geometry">
            <mxPoint x="490" y="220" as="sourcePoint"/>
            <mxPoint x="515" y="250" as="targetPoint"/>
          </mxGeometry>
        </mxCell>
        <mxCell id="W4z7vBKg3XC51k5--N2T-3" value="" style="endArrow=classic;html=1;exitX=0;exitY=1;exitDx=0;exitDy=0;entryX=0.5;entryY=0;entryDx=0;entryDy=0;strokeWidth=2;" parent="BQkyG8N_VDIgJS5VGbaI-1" source="W4z7vBKg3XC51k5--N2T-0" target="W4z7vBKg3XC51k5--N2T-5" edge="1">
          <mxGeometry width="50" height="50" relative="1" as="geometry">
            <mxPoint x="397.5" y="150" as="sourcePoint"/>
            <mxPoint x="390" y="250" as="targetPoint"/>
          </mxGeometry>
        </mxCell>
        <mxCell id="W4z7vBKg3XC51k5--N2T-4" value="" style="endArrow=classic;html=1;strokeWidth=2;entryX=0.5;entryY=0;entryDx=0;entryDy=0;exitX=0.5;exitY=1;exitDx=0;exitDy=0;" parent="BQkyG8N_VDIgJS5VGbaI-1" source="W4z7vBKg3XC51k5--N2T-5" target="GRMvZ2hlrFzyxpIoFRWS-17" edge="1">
          <mxGeometry width="50" height="50" relative="1" as="geometry">
            <mxPoint x="360" y="330" as="sourcePoint"/>
            <mxPoint x="160" y="400" as="targetPoint"/>
          </mxGeometry>
        </mxCell>
        <mxCell id="W4z7vBKg3XC51k5--N2T-5" value="6.1.4&lt;br&gt;Query Database" style="shape=process;whiteSpace=wrap;html=1;backgroundOutline=1;" parent="BQkyG8N_VDIgJS5VGbaI-1" vertex="1">
          <mxGeometry x="190" y="200" width="90" height="90" as="geometry"/>
        </mxCell>
        <mxCell id="W4z7vBKg3XC51k5--N2T-7" value="" style="endArrow=classic;html=1;strokeWidth=2;exitX=1;exitY=1;exitDx=0;exitDy=0;entryX=0.5;entryY=0;entryDx=0;entryDy=0;" parent="BQkyG8N_VDIgJS5VGbaI-1" source="W4z7vBKg3XC51k5--N2T-5" target="GRMvZ2hlrFzyxpIoFRWS-18" edge="1">
          <mxGeometry width="50" height="50" relative="1" as="geometry">
            <mxPoint x="345" y="350" as="sourcePoint"/>
            <mxPoint x="415" y="422" as="targetPoint"/>
          </mxGeometry>
        </mxCell>
        <mxCell id="GRMvZ2hlrFzyxpIoFRWS-0" value="" style="endArrow=classic;html=1;strokeWidth=1;" edge="1" parent="BQkyG8N_VDIgJS5VGbaI-1">
          <mxGeometry width="50" height="50" relative="1" as="geometry">
            <mxPoint x="214.5" y="330" as="sourcePoint"/>
            <mxPoint x="214.5" y="380" as="targetPoint"/>
          </mxGeometry>
        </mxCell>
        <mxCell id="GRMvZ2hlrFzyxpIoFRWS-1" value="" style="ellipse;whiteSpace=wrap;html=1;aspect=fixed;fillColor=#FFFFFF;" vertex="1" parent="BQkyG8N_VDIgJS5VGbaI-1">
          <mxGeometry x="40" y="40" width="10" height="10" as="geometry"/>
        </mxCell>
        <mxCell id="GRMvZ2hlrFzyxpIoFRWS-2" value="" style="ellipse;whiteSpace=wrap;html=1;aspect=fixed;fillColor=#FFFFFF;" vertex="1" parent="BQkyG8N_VDIgJS5VGbaI-1">
          <mxGeometry x="50" y="50" width="10" height="10" as="geometry"/>
        </mxCell>
        <mxCell id="GRMvZ2hlrFzyxpIoFRWS-3" value="" style="ellipse;whiteSpace=wrap;html=1;aspect=fixed;fillColor=#FFFFFF;" vertex="1" parent="BQkyG8N_VDIgJS5VGbaI-1">
          <mxGeometry x="60" y="60" width="10" height="10" as="geometry"/>
        </mxCell>
        <mxCell id="GRMvZ2hlrFzyxpIoFRWS-4" value="" style="ellipse;whiteSpace=wrap;html=1;aspect=fixed;fillColor=#FFFFFF;" vertex="1" parent="BQkyG8N_VDIgJS5VGbaI-1">
          <mxGeometry x="70" y="70" width="10" height="10" as="geometry"/>
        </mxCell>
        <mxCell id="GRMvZ2hlrFzyxpIoFRWS-5" value="" style="ellipse;whiteSpace=wrap;html=1;aspect=fixed;fillColor=#FFFFFF;" vertex="1" parent="BQkyG8N_VDIgJS5VGbaI-1">
          <mxGeometry x="80" y="80" width="10" height="10" as="geometry"/>
        </mxCell>
        <mxCell id="GRMvZ2hlrFzyxpIoFRWS-6" value="" style="ellipse;whiteSpace=wrap;html=1;aspect=fixed;fillColor=#FFFFFF;" vertex="1" parent="BQkyG8N_VDIgJS5VGbaI-1">
          <mxGeometry x="470" y="160" width="10" height="10" as="geometry"/>
        </mxCell>
        <mxCell id="GRMvZ2hlrFzyxpIoFRWS-7" value="" style="ellipse;whiteSpace=wrap;html=1;aspect=fixed;fillColor=#FFFFFF;" vertex="1" parent="BQkyG8N_VDIgJS5VGbaI-1">
          <mxGeometry x="420" y="350" width="10" height="10" as="geometry"/>
        </mxCell>
        <mxCell id="GRMvZ2hlrFzyxpIoFRWS-8" value="" style="ellipse;whiteSpace=wrap;html=1;aspect=fixed;fillColor=#FFFFFF;" vertex="1" parent="BQkyG8N_VDIgJS5VGbaI-1">
          <mxGeometry x="360" y="360" width="10" height="10" as="geometry"/>
        </mxCell>
        <mxCell id="GRMvZ2hlrFzyxpIoFRWS-9" value="" style="ellipse;whiteSpace=wrap;html=1;aspect=fixed;fillColor=#FFFFFF;" vertex="1" parent="BQkyG8N_VDIgJS5VGbaI-1">
          <mxGeometry x="250" y="380" width="10" height="10" as="geometry"/>
        </mxCell>
        <mxCell id="GRMvZ2hlrFzyxpIoFRWS-10" value="" style="ellipse;whiteSpace=wrap;html=1;aspect=fixed;fillColor=#FFFFFF;" vertex="1" parent="BQkyG8N_VDIgJS5VGbaI-1">
          <mxGeometry x="80" y="360" width="10" height="10" as="geometry"/>
        </mxCell>
        <mxCell id="GRMvZ2hlrFzyxpIoFRWS-11" value="" style="ellipse;whiteSpace=wrap;html=1;aspect=fixed;fillColor=#FFFFFF;" vertex="1" parent="BQkyG8N_VDIgJS5VGbaI-1">
          <mxGeometry x="70" y="310" width="10" height="10" as="geometry"/>
        </mxCell>
        <mxCell id="GRMvZ2hlrFzyxpIoFRWS-12" value="" style="ellipse;whiteSpace=wrap;html=1;aspect=fixed;fillColor=#FFFFFF;" vertex="1" parent="BQkyG8N_VDIgJS5VGbaI-1">
          <mxGeometry x="210" y="320" width="10" height="10" as="geometry"/>
        </mxCell>
        <mxCell id="GRMvZ2hlrFzyxpIoFRWS-16" value="6.1.4.1&lt;br&gt;Connect to Database" style="shape=process;whiteSpace=wrap;html=1;backgroundOutline=1;" vertex="1" parent="BQkyG8N_VDIgJS5VGbaI-1">
          <mxGeometry x="-90" y="400" width="90" height="80" as="geometry"/>
        </mxCell>
        <mxCell id="GRMvZ2hlrFzyxpIoFRWS-17" value="6.1.4.2&lt;br&gt;Prepare statement" style="shape=process;whiteSpace=wrap;html=1;backgroundOutline=1;" vertex="1" parent="BQkyG8N_VDIgJS5VGbaI-1">
          <mxGeometry x="175" y="420" width="120" height="60" as="geometry"/>
        </mxCell>
        <mxCell id="GRMvZ2hlrFzyxpIoFRWS-18" value="6.1.4.3&lt;br&gt;Execute statement" style="shape=process;whiteSpace=wrap;html=1;backgroundOutline=1;" vertex="1" parent="BQkyG8N_VDIgJS5VGbaI-1">
          <mxGeometry x="410" y="420" width="120" height="60" as="geometry"/>
        </mxCell>
        <mxCell id="GRMvZ2hlrFzyxpIoFRWS-19" value="" style="endArrow=classic;html=1;strokeWidth=1;exitX=0;exitY=1;exitDx=0;exitDy=0;entryX=0.5;entryY=0;entryDx=0;entryDy=0;" edge="1" parent="BQkyG8N_VDIgJS5VGbaI-1" source="W4z7vBKg3XC51k5--N2T-5" target="GRMvZ2hlrFzyxpIoFRWS-16">
          <mxGeometry width="50" height="50" relative="1" as="geometry">
            <mxPoint x="40" y="330" as="sourcePoint"/>
            <mxPoint x="90" y="280" as="targetPoint"/>
          </mxGeometry>
        </mxCell>
        <mxCell id="GRMvZ2hlrFzyxpIoFRWS-20" value="" style="endArrow=classic;html=1;strokeWidth=1;" edge="1" parent="BQkyG8N_VDIgJS5VGbaI-1">
          <mxGeometry width="50" height="50" relative="1" as="geometry">
            <mxPoint x="70" y="320" as="sourcePoint"/>
            <mxPoint x="30" y="340" as="targetPoint"/>
          </mxGeometry>
        </mxCell>
        <mxCell id="GRMvZ2hlrFzyxpIoFRWS-21" value="" style="endArrow=classic;html=1;strokeWidth=1;" edge="1" parent="BQkyG8N_VDIgJS5VGbaI-1">
          <mxGeometry width="50" height="50" relative="1" as="geometry">
            <mxPoint x="254.5" y="380" as="sourcePoint"/>
            <mxPoint x="254.5" y="340" as="targetPoint"/>
          </mxGeometry>
        </mxCell>
        <mxCell id="GRMvZ2hlrFzyxpIoFRWS-22" value="" style="endArrow=classic;html=1;strokeWidth=1;" edge="1" parent="BQkyG8N_VDIgJS5VGbaI-1">
          <mxGeometry width="50" height="50" relative="1" as="geometry">
            <mxPoint x="90" y="360" as="sourcePoint"/>
            <mxPoint x="130" y="340" as="targetPoint"/>
          </mxGeometry>
        </mxCell>
        <mxCell id="GRMvZ2hlrFzyxpIoFRWS-23" value="" style="endArrow=classic;html=1;strokeWidth=1;" edge="1" parent="BQkyG8N_VDIgJS5VGbaI-1">
          <mxGeometry width="50" height="50" relative="1" as="geometry">
            <mxPoint x="370" y="370" as="sourcePoint"/>
            <mxPoint x="400" y="400" as="targetPoint"/>
          </mxGeometry>
        </mxCell>
        <mxCell id="GRMvZ2hlrFzyxpIoFRWS-24" value="" style="endArrow=classic;html=1;strokeWidth=1;" edge="1" parent="BQkyG8N_VDIgJS5VGbaI-1">
          <mxGeometry width="50" height="50" relative="1" as="geometry">
            <mxPoint x="420" y="350" as="sourcePoint"/>
            <mxPoint x="380" y="330" as="targetPoint"/>
          </mxGeometry>
        </mxCell>
        <mxCell id="GRMvZ2hlrFzyxpIoFRWS-25" value="Database credentials" style="text;html=1;strokeColor=none;fillColor=none;align=center;verticalAlign=middle;whiteSpace=wrap;rounded=0;" vertex="1" parent="BQkyG8N_VDIgJS5VGbaI-1">
          <mxGeometry x="10" y="300" width="40" height="20" as="geometry"/>
        </mxCell>
        <mxCell id="GRMvZ2hlrFzyxpIoFRWS-26" value="Database object" style="text;html=1;strokeColor=none;fillColor=none;align=center;verticalAlign=middle;whiteSpace=wrap;rounded=0;" vertex="1" parent="BQkyG8N_VDIgJS5VGbaI-1">
          <mxGeometry x="70" y="380" width="40" height="20" as="geometry"/>
        </mxCell>
        <mxCell id="GRMvZ2hlrFzyxpIoFRWS-27" value="Database object" style="text;html=1;strokeColor=none;fillColor=none;align=center;verticalAlign=middle;whiteSpace=wrap;rounded=0;" vertex="1" parent="BQkyG8N_VDIgJS5VGbaI-1">
          <mxGeometry x="160" y="335" width="40" height="20" as="geometry"/>
        </mxCell>
        <mxCell id="GRMvZ2hlrFzyxpIoFRWS-28" value="Prepared statement" style="text;html=1;strokeColor=none;fillColor=none;align=center;verticalAlign=middle;whiteSpace=wrap;rounded=0;" vertex="1" parent="BQkyG8N_VDIgJS5VGbaI-1">
          <mxGeometry x="270" y="355" width="40" height="20" as="geometry"/>
        </mxCell>
        <mxCell id="GRMvZ2hlrFzyxpIoFRWS-29" value="Prepared statement" style="text;html=1;strokeColor=none;fillColor=none;align=center;verticalAlign=middle;whiteSpace=wrap;rounded=0;" vertex="1" parent="BQkyG8N_VDIgJS5VGbaI-1">
          <mxGeometry x="340" y="390" width="40" height="20" as="geometry"/>
        </mxCell>
        <mxCell id="GRMvZ2hlrFzyxpIoFRWS-30" value="Statement object" style="text;html=1;strokeColor=none;fillColor=none;align=center;verticalAlign=middle;whiteSpace=wrap;rounded=0;" vertex="1" parent="BQkyG8N_VDIgJS5VGbaI-1">
          <mxGeometry x="405" y="315" width="40" height="20" as="geometry"/>
        </mxCell>
        <mxCell id="sRskY3rJbkkUu5XK8PiD-0" value="" style="endArrow=classic;html=1;strokeWidth=1;" edge="1" parent="BQkyG8N_VDIgJS5VGbaI-1">
          <mxGeometry width="50" height="50" relative="1" as="geometry">
            <mxPoint x="480" y="170" as="sourcePoint"/>
            <mxPoint x="520" y="190" as="targetPoint"/>
          </mxGeometry>
        </mxCell>
        <mxCell id="sRskY3rJbkkUu5XK8PiD-2" value="Statement object" style="text;html=1;strokeColor=none;fillColor=none;align=center;verticalAlign=middle;whiteSpace=wrap;rounded=0;" vertex="1" parent="BQkyG8N_VDIgJS5VGbaI-1">
          <mxGeometry x="450" y="190" width="40" height="20" as="geometry"/>
        </mxCell>
      </root>
    </mxGraphModel>
  </diagram>
  <diagram id="TJLfWIqsNO7Q7lEgBNCy" name="6.3: Update GH Record">
    <mxGraphModel dx="1160" dy="646" grid="1" gridSize="10" guides="1" tooltips="1" connect="1" arrows="1" fold="1" page="1" pageScale="1" pageWidth="850" pageHeight="1100" math="0" shadow="0">
      <root>
        <mxCell id="3S3HiH7rBTsIUguxJZKw-0"/>
        <mxCell id="3S3HiH7rBTsIUguxJZKw-1" parent="3S3HiH7rBTsIUguxJZKw-0"/>
        <mxCell id="YBVzJo3IJKOP8nGpKCpG-0" value="6.3&lt;br&gt;Update Group Home Record" style="whiteSpace=wrap;html=1;aspect=fixed;" parent="3S3HiH7rBTsIUguxJZKw-1" vertex="1">
          <mxGeometry x="420" y="70" width="80" height="80" as="geometry"/>
        </mxCell>
        <mxCell id="YBVzJo3IJKOP8nGpKCpG-1" value="" style="endArrow=classic;html=1;exitX=0.25;exitY=1;exitDx=0;exitDy=0;entryX=0.5;entryY=0;entryDx=0;entryDy=0;strokeWidth=2;" parent="3S3HiH7rBTsIUguxJZKw-1" source="YBVzJo3IJKOP8nGpKCpG-0" target="YBVzJo3IJKOP8nGpKCpG-2" edge="1">
          <mxGeometry width="50" height="50" relative="1" as="geometry">
            <mxPoint x="310" y="190" as="sourcePoint"/>
            <mxPoint x="160" y="270" as="targetPoint"/>
          </mxGeometry>
        </mxCell>
        <mxCell id="YBVzJo3IJKOP8nGpKCpG-2" value="&lt;span style=&quot;white-space: normal&quot;&gt;6.2.1&lt;br&gt;&lt;/span&gt;Retrieve Submitted Form Data" style="shape=process;whiteSpace=wrap;html=1;backgroundOutline=1;" parent="3S3HiH7rBTsIUguxJZKw-1" vertex="1">
          <mxGeometry x="120" y="280" width="90" height="80" as="geometry"/>
        </mxCell>
        <mxCell id="YBVzJo3IJKOP8nGpKCpG-3" value="&lt;span style=&quot;white-space: normal&quot;&gt;6.2.2&lt;br&gt;&lt;/span&gt;Verify Submitted Form Data" style="shape=process;whiteSpace=wrap;html=1;backgroundOutline=1;" parent="3S3HiH7rBTsIUguxJZKw-1" vertex="1">
          <mxGeometry x="415" y="280" width="90" height="80" as="geometry"/>
        </mxCell>
        <mxCell id="YBVzJo3IJKOP8nGpKCpG-4" value="" style="endArrow=classic;html=1;exitX=0.5;exitY=1;exitDx=0;exitDy=0;entryX=0.5;entryY=0;entryDx=0;entryDy=0;strokeWidth=2;" parent="3S3HiH7rBTsIUguxJZKw-1" source="YBVzJo3IJKOP8nGpKCpG-0" target="YBVzJo3IJKOP8nGpKCpG-3" edge="1">
          <mxGeometry width="50" height="50" relative="1" as="geometry">
            <mxPoint x="467.5" y="170" as="sourcePoint"/>
            <mxPoint x="262.5" y="290" as="targetPoint"/>
          </mxGeometry>
        </mxCell>
        <mxCell id="YBVzJo3IJKOP8nGpKCpG-5" value="" style="endArrow=classic;html=1;strokeWidth=2;entryX=0.5;entryY=0;entryDx=0;entryDy=0;exitX=1;exitY=1;exitDx=0;exitDy=0;" parent="3S3HiH7rBTsIUguxJZKw-1" source="19vuFMOHtuplb1s9IyGi-23" target="YBVzJo3IJKOP8nGpKCpG-6" edge="1">
          <mxGeometry width="50" height="50" relative="1" as="geometry">
            <mxPoint x="550" y="170" as="sourcePoint"/>
            <mxPoint x="560" y="270" as="targetPoint"/>
          </mxGeometry>
        </mxCell>
        <mxCell id="YBVzJo3IJKOP8nGpKCpG-6" value="6.3.3&lt;br&gt;Update Group Home Record with Submitted Form Data" style="whiteSpace=wrap;html=1;aspect=fixed;" parent="3S3HiH7rBTsIUguxJZKw-1" vertex="1">
          <mxGeometry x="680" y="270" width="90" height="90" as="geometry"/>
        </mxCell>
        <mxCell id="YBVzJo3IJKOP8nGpKCpG-7" value="" style="endArrow=classic;html=1;curved=1;" parent="3S3HiH7rBTsIUguxJZKw-1" edge="1">
          <mxGeometry width="50" height="50" relative="1" as="geometry">
            <mxPoint x="455" y="149.9999999999999" as="sourcePoint"/>
            <mxPoint x="430" y="150" as="targetPoint"/>
            <Array as="points">
              <mxPoint x="490" y="160"/>
              <mxPoint x="470" y="180"/>
              <mxPoint x="410" y="180"/>
              <mxPoint x="400" y="160"/>
            </Array>
          </mxGeometry>
        </mxCell>
        <mxCell id="19vuFMOHtuplb1s9IyGi-0" value="" style="endArrow=classic;html=1;strokeWidth=1;" edge="1" parent="3S3HiH7rBTsIUguxJZKw-1">
          <mxGeometry width="50" height="50" relative="1" as="geometry">
            <mxPoint x="260" y="210" as="sourcePoint"/>
            <mxPoint x="220" y="230" as="targetPoint"/>
          </mxGeometry>
        </mxCell>
        <mxCell id="19vuFMOHtuplb1s9IyGi-1" value="" style="ellipse;whiteSpace=wrap;html=1;aspect=fixed;fillColor=#000000;" vertex="1" parent="3S3HiH7rBTsIUguxJZKw-1">
          <mxGeometry x="910" y="530" width="10" height="10" as="geometry"/>
        </mxCell>
        <mxCell id="19vuFMOHtuplb1s9IyGi-2" value="" style="ellipse;whiteSpace=wrap;html=1;aspect=fixed;fillColor=#FFFFFF;" vertex="1" parent="3S3HiH7rBTsIUguxJZKw-1">
          <mxGeometry x="849.47" y="544" width="10" height="10" as="geometry"/>
        </mxCell>
        <mxCell id="19vuFMOHtuplb1s9IyGi-3" value="" style="ellipse;whiteSpace=wrap;html=1;aspect=fixed;fillColor=#FFFFFF;" vertex="1" parent="3S3HiH7rBTsIUguxJZKw-1">
          <mxGeometry x="730" y="554" width="10" height="10" as="geometry"/>
        </mxCell>
        <mxCell id="19vuFMOHtuplb1s9IyGi-4" value="" style="ellipse;whiteSpace=wrap;html=1;aspect=fixed;fillColor=#FFFFFF;" vertex="1" parent="3S3HiH7rBTsIUguxJZKw-1">
          <mxGeometry x="700" y="559" width="10" height="10" as="geometry"/>
        </mxCell>
        <mxCell id="19vuFMOHtuplb1s9IyGi-5" value="" style="ellipse;whiteSpace=wrap;html=1;aspect=fixed;fillColor=#FFFFFF;" vertex="1" parent="3S3HiH7rBTsIUguxJZKw-1">
          <mxGeometry x="580" y="550" width="10" height="10" as="geometry"/>
        </mxCell>
        <mxCell id="19vuFMOHtuplb1s9IyGi-6" value="" style="ellipse;whiteSpace=wrap;html=1;aspect=fixed;fillColor=#FFFFFF;" vertex="1" parent="3S3HiH7rBTsIUguxJZKw-1">
          <mxGeometry x="590" y="490" width="10" height="10" as="geometry"/>
        </mxCell>
        <mxCell id="19vuFMOHtuplb1s9IyGi-9" value="" style="ellipse;whiteSpace=wrap;html=1;aspect=fixed;fillColor=#000000;" vertex="1" parent="3S3HiH7rBTsIUguxJZKw-1">
          <mxGeometry x="480" y="260" width="10" height="10" as="geometry"/>
        </mxCell>
        <mxCell id="19vuFMOHtuplb1s9IyGi-10" value="" style="ellipse;whiteSpace=wrap;html=1;aspect=fixed;fillColor=#FFFFFF;" vertex="1" parent="3S3HiH7rBTsIUguxJZKw-1">
          <mxGeometry x="440" y="220" width="10" height="10" as="geometry"/>
        </mxCell>
        <mxCell id="19vuFMOHtuplb1s9IyGi-11" value="" style="ellipse;whiteSpace=wrap;html=1;aspect=fixed;fillColor=#FFFFFF;" vertex="1" parent="3S3HiH7rBTsIUguxJZKw-1">
          <mxGeometry x="310" y="230" width="10" height="10" as="geometry"/>
        </mxCell>
        <mxCell id="19vuFMOHtuplb1s9IyGi-12" value="" style="ellipse;whiteSpace=wrap;html=1;aspect=fixed;fillColor=#FFFFFF;" vertex="1" parent="3S3HiH7rBTsIUguxJZKw-1">
          <mxGeometry x="260" y="200" width="10" height="10" as="geometry"/>
        </mxCell>
        <mxCell id="19vuFMOHtuplb1s9IyGi-13" value="" style="endArrow=classic;html=1;strokeWidth=1;" edge="1" parent="3S3HiH7rBTsIUguxJZKw-1">
          <mxGeometry width="50" height="50" relative="1" as="geometry">
            <mxPoint x="320" y="230" as="sourcePoint"/>
            <mxPoint x="370" y="200" as="targetPoint"/>
          </mxGeometry>
        </mxCell>
        <mxCell id="19vuFMOHtuplb1s9IyGi-14" value="" style="endArrow=classic;html=1;strokeWidth=1;" edge="1" parent="3S3HiH7rBTsIUguxJZKw-1">
          <mxGeometry width="50" height="50" relative="1" as="geometry">
            <mxPoint x="484.47" y="260" as="sourcePoint"/>
            <mxPoint x="484.47" y="220" as="targetPoint"/>
          </mxGeometry>
        </mxCell>
        <mxCell id="19vuFMOHtuplb1s9IyGi-15" value="" style="endArrow=classic;html=1;strokeWidth=1;" edge="1" parent="3S3HiH7rBTsIUguxJZKw-1">
          <mxGeometry width="50" height="50" relative="1" as="geometry">
            <mxPoint x="444.4700000000001" y="230" as="sourcePoint"/>
            <mxPoint x="444.4700000000001" y="270" as="targetPoint"/>
          </mxGeometry>
        </mxCell>
        <mxCell id="19vuFMOHtuplb1s9IyGi-19" value="Form variables" style="text;html=1;strokeColor=none;fillColor=none;align=center;verticalAlign=middle;whiteSpace=wrap;rounded=0;" vertex="1" parent="3S3HiH7rBTsIUguxJZKw-1">
          <mxGeometry x="190" y="190" width="40" height="20" as="geometry"/>
        </mxCell>
        <mxCell id="19vuFMOHtuplb1s9IyGi-20" value="Form variables" style="text;html=1;strokeColor=none;fillColor=none;align=center;verticalAlign=middle;whiteSpace=wrap;rounded=0;" vertex="1" parent="3S3HiH7rBTsIUguxJZKw-1">
          <mxGeometry x="280" y="250" width="40" height="20" as="geometry"/>
        </mxCell>
        <mxCell id="19vuFMOHtuplb1s9IyGi-21" value="Form variables" style="text;html=1;strokeColor=none;fillColor=none;align=center;verticalAlign=middle;whiteSpace=wrap;rounded=0;" vertex="1" parent="3S3HiH7rBTsIUguxJZKw-1">
          <mxGeometry x="390" y="230" width="40" height="20" as="geometry"/>
        </mxCell>
        <mxCell id="19vuFMOHtuplb1s9IyGi-22" value="Form&amp;nbsp;" style="text;html=1;strokeColor=none;fillColor=none;align=center;verticalAlign=middle;whiteSpace=wrap;rounded=0;" vertex="1" parent="3S3HiH7rBTsIUguxJZKw-1">
          <mxGeometry x="490" y="240" width="40" height="20" as="geometry"/>
        </mxCell>
        <mxCell id="19vuFMOHtuplb1s9IyGi-23" value="" style="rhombus;whiteSpace=wrap;html=1;fillColor=#FFFFFF;" vertex="1" parent="3S3HiH7rBTsIUguxJZKw-1">
          <mxGeometry x="490" y="140" width="20" height="20" as="geometry"/>
        </mxCell>
        <mxCell id="19vuFMOHtuplb1s9IyGi-24" value="Form variables" style="text;html=1;strokeColor=none;fillColor=none;align=center;verticalAlign=middle;whiteSpace=wrap;rounded=0;" vertex="1" parent="3S3HiH7rBTsIUguxJZKw-1">
          <mxGeometry x="530" y="480" width="40" height="20" as="geometry"/>
        </mxCell>
        <mxCell id="19vuFMOHtuplb1s9IyGi-26" value="1.1.4&lt;br&gt;Query database" style="shape=process;whiteSpace=wrap;html=1;backgroundOutline=1;" vertex="1" parent="3S3HiH7rBTsIUguxJZKw-1">
          <mxGeometry x="680" y="400" width="90" height="90" as="geometry"/>
        </mxCell>
        <mxCell id="19vuFMOHtuplb1s9IyGi-27" value="1.1.4.1&lt;br&gt;Connect to Database" style="shape=process;whiteSpace=wrap;html=1;backgroundOutline=1;" vertex="1" parent="3S3HiH7rBTsIUguxJZKw-1">
          <mxGeometry x="440" y="560" width="90" height="80" as="geometry"/>
        </mxCell>
        <mxCell id="19vuFMOHtuplb1s9IyGi-28" value="1.1.4.2&lt;br&gt;Prepare statement" style="shape=process;whiteSpace=wrap;html=1;backgroundOutline=1;" vertex="1" parent="3S3HiH7rBTsIUguxJZKw-1">
          <mxGeometry x="665" y="580" width="120" height="60" as="geometry"/>
        </mxCell>
        <mxCell id="19vuFMOHtuplb1s9IyGi-29" value="1.1.4.3&lt;br&gt;Execute statement" style="shape=process;whiteSpace=wrap;html=1;backgroundOutline=1;" vertex="1" parent="3S3HiH7rBTsIUguxJZKw-1">
          <mxGeometry x="920" y="580" width="120" height="60" as="geometry"/>
        </mxCell>
        <mxCell id="19vuFMOHtuplb1s9IyGi-30" value="" style="endArrow=classic;html=1;strokeWidth=1;entryX=0.5;entryY=0;entryDx=0;entryDy=0;exitX=0;exitY=1;exitDx=0;exitDy=0;" edge="1" parent="3S3HiH7rBTsIUguxJZKw-1" source="19vuFMOHtuplb1s9IyGi-26" target="19vuFMOHtuplb1s9IyGi-27">
          <mxGeometry width="50" height="50" relative="1" as="geometry">
            <mxPoint x="590" y="530" as="sourcePoint"/>
            <mxPoint x="640" y="480" as="targetPoint"/>
          </mxGeometry>
        </mxCell>
        <mxCell id="19vuFMOHtuplb1s9IyGi-31" value="" style="endArrow=classic;html=1;strokeWidth=1;exitX=0.5;exitY=1;exitDx=0;exitDy=0;entryX=0.5;entryY=0;entryDx=0;entryDy=0;" edge="1" parent="3S3HiH7rBTsIUguxJZKw-1" source="19vuFMOHtuplb1s9IyGi-26" target="19vuFMOHtuplb1s9IyGi-28">
          <mxGeometry width="50" height="50" relative="1" as="geometry">
            <mxPoint x="730" y="560" as="sourcePoint"/>
            <mxPoint x="780" y="510" as="targetPoint"/>
          </mxGeometry>
        </mxCell>
        <mxCell id="19vuFMOHtuplb1s9IyGi-32" value="" style="endArrow=classic;html=1;strokeWidth=1;exitX=0.5;exitY=1;exitDx=0;exitDy=0;entryX=0.5;entryY=0;entryDx=0;entryDy=0;" edge="1" parent="3S3HiH7rBTsIUguxJZKw-1" source="YBVzJo3IJKOP8nGpKCpG-6" target="19vuFMOHtuplb1s9IyGi-26">
          <mxGeometry width="50" height="50" relative="1" as="geometry">
            <mxPoint x="580" y="490" as="sourcePoint"/>
            <mxPoint x="630" y="440" as="targetPoint"/>
          </mxGeometry>
        </mxCell>
        <mxCell id="19vuFMOHtuplb1s9IyGi-33" value="" style="endArrow=classic;html=1;strokeWidth=1;exitX=1;exitY=1;exitDx=0;exitDy=0;entryX=0.5;entryY=0;entryDx=0;entryDy=0;" edge="1" parent="3S3HiH7rBTsIUguxJZKw-1" source="19vuFMOHtuplb1s9IyGi-26" target="19vuFMOHtuplb1s9IyGi-29">
          <mxGeometry width="50" height="50" relative="1" as="geometry">
            <mxPoint x="870" y="540" as="sourcePoint"/>
            <mxPoint x="920" y="490" as="targetPoint"/>
          </mxGeometry>
        </mxCell>
        <mxCell id="19vuFMOHtuplb1s9IyGi-34" value="" style="endArrow=classic;html=1;strokeWidth=1;" edge="1" parent="3S3HiH7rBTsIUguxJZKw-1">
          <mxGeometry width="50" height="50" relative="1" as="geometry">
            <mxPoint x="590" y="500" as="sourcePoint"/>
            <mxPoint x="550" y="520" as="targetPoint"/>
          </mxGeometry>
        </mxCell>
        <mxCell id="19vuFMOHtuplb1s9IyGi-35" value="" style="endArrow=classic;html=1;strokeWidth=1;" edge="1" parent="3S3HiH7rBTsIUguxJZKw-1">
          <mxGeometry width="50" height="50" relative="1" as="geometry">
            <mxPoint x="590" y="550" as="sourcePoint"/>
            <mxPoint x="620" y="530" as="targetPoint"/>
          </mxGeometry>
        </mxCell>
        <mxCell id="19vuFMOHtuplb1s9IyGi-38" value="Database object" style="text;html=1;strokeColor=none;fillColor=none;align=center;verticalAlign=middle;whiteSpace=wrap;rounded=0;" vertex="1" parent="3S3HiH7rBTsIUguxJZKw-1">
          <mxGeometry x="550" y="560" width="40" height="20" as="geometry"/>
        </mxCell>
        <mxCell id="19vuFMOHtuplb1s9IyGi-39" value="Database object" style="text;html=1;strokeColor=none;fillColor=none;align=center;verticalAlign=middle;whiteSpace=wrap;rounded=0;" vertex="1" parent="3S3HiH7rBTsIUguxJZKw-1">
          <mxGeometry x="640" y="549" width="40" height="20" as="geometry"/>
        </mxCell>
        <mxCell id="19vuFMOHtuplb1s9IyGi-40" value="" style="endArrow=classic;html=1;strokeWidth=1;" edge="1" parent="3S3HiH7rBTsIUguxJZKw-1">
          <mxGeometry width="50" height="50" relative="1" as="geometry">
            <mxPoint x="704.47" y="560" as="sourcePoint"/>
            <mxPoint x="704.47" y="520" as="targetPoint"/>
          </mxGeometry>
        </mxCell>
        <mxCell id="19vuFMOHtuplb1s9IyGi-41" value="" style="endArrow=classic;html=1;strokeWidth=1;" edge="1" parent="3S3HiH7rBTsIUguxJZKw-1">
          <mxGeometry width="50" height="50" relative="1" as="geometry">
            <mxPoint x="734.47" y="554" as="sourcePoint"/>
            <mxPoint x="734.47" y="524" as="targetPoint"/>
          </mxGeometry>
        </mxCell>
        <mxCell id="19vuFMOHtuplb1s9IyGi-42" value="Prepared statement" style="text;html=1;strokeColor=none;fillColor=none;align=center;verticalAlign=middle;whiteSpace=wrap;rounded=0;" vertex="1" parent="3S3HiH7rBTsIUguxJZKw-1">
          <mxGeometry x="750" y="520" width="40" height="20" as="geometry"/>
        </mxCell>
        <mxCell id="19vuFMOHtuplb1s9IyGi-43" value="" style="endArrow=classic;html=1;strokeWidth=1;" edge="1" parent="3S3HiH7rBTsIUguxJZKw-1">
          <mxGeometry width="50" height="50" relative="1" as="geometry">
            <mxPoint x="860" y="550" as="sourcePoint"/>
            <mxPoint x="900" y="570" as="targetPoint"/>
          </mxGeometry>
        </mxCell>
        <mxCell id="19vuFMOHtuplb1s9IyGi-44" value="" style="endArrow=classic;html=1;strokeWidth=1;" edge="1" parent="3S3HiH7rBTsIUguxJZKw-1">
          <mxGeometry width="50" height="50" relative="1" as="geometry">
            <mxPoint x="910" y="530" as="sourcePoint"/>
            <mxPoint x="860" y="510" as="targetPoint"/>
          </mxGeometry>
        </mxCell>
        <mxCell id="19vuFMOHtuplb1s9IyGi-45" value="Prepared statement" style="text;html=1;strokeColor=none;fillColor=none;align=center;verticalAlign=middle;whiteSpace=wrap;rounded=0;" vertex="1" parent="3S3HiH7rBTsIUguxJZKw-1">
          <mxGeometry x="819.47" y="564" width="40" height="20" as="geometry"/>
        </mxCell>
        <mxCell id="19vuFMOHtuplb1s9IyGi-47" value="Success message" style="text;html=1;strokeColor=none;fillColor=none;align=center;verticalAlign=middle;whiteSpace=wrap;rounded=0;" vertex="1" parent="3S3HiH7rBTsIUguxJZKw-1">
          <mxGeometry x="895" y="490" width="40" height="20" as="geometry"/>
        </mxCell>
      </root>
    </mxGraphModel>
  </diagram>
</mxfile>
